<svg width="40" height="34" viewBox="0 0 40 34" fill="none" xmlns="http://www.w3.org/2000/svg">
<path d="M38.6987 8.04283L32.6859 1.48342C31.9851 0.718987 30.9885 0.280518 29.9514 0.280518H10.0484C9.01132 0.280518 8.01467 0.718987 7.31388 1.48342L1.30113 8.04283C0.291353 9.14439 0.240447 10.8498 1.18282 12.0097L18.451 33.2629C18.8317 33.7314 19.3962 34 19.9999 34C20.6035 34 21.168 33.7314 21.5487 33.2629L38.8169 12.0097C39.7594 10.8497 39.7084 9.14439 38.6987 8.04283ZM30.2829 1.71142L28.6824 6.40624C28.5571 6.77383 28.7535 7.17339 29.1211 7.29874C29.1963 7.32433 29.2728 7.33652 29.3479 7.33652C29.6405 7.33652 29.9137 7.15249 30.0134 6.86008L31.5552 2.33739C31.5874 2.36861 31.6189 2.40049 31.6492 2.43358L37.662 8.99299C37.7487 9.08749 37.8207 9.19099 37.881 9.29964H28.5768L21.5982 1.68667H29.9513C30.063 1.68677 30.1737 1.69539 30.2829 1.71142ZM26.6691 9.29964H13.3306L19.9999 2.02417L26.6691 9.29964ZM18.4015 1.68677L12.0649 8.59933L9.71679 1.71142C9.82601 1.69549 9.93673 1.68677 10.0483 1.68677H18.4015ZM8.35048 2.43367C8.38085 2.40049 8.41235 2.36861 8.44451 2.33749L10.818 9.29974H2.11873C2.17901 9.19117 2.25101 9.08767 2.33773 8.99308L8.35048 2.43367ZM2.0306 10.7059H27.2166L19.9999 31.8751L13.592 13.0788C13.4668 12.7113 13.0673 12.5148 12.6996 12.6401C12.332 12.7655 12.1356 13.165 12.261 13.5325L18.065 30.5578L2.27417 11.1229C2.17001 10.9946 2.08976 10.8535 2.0306 10.7059ZM21.9346 30.5578L28.7023 10.7059H37.9691C37.9099 10.8535 37.8297 10.9946 37.7255 11.1228L21.9346 30.5578Z" fill="#6701BA"/>
</svg>
