<svg width="14" height="14" viewBox="0 0 14 14" fill="none" xmlns="http://www.w3.org/2000/svg">
<path d="M1 7L0.292893 7.70711C-0.0976315 7.31658 -0.0976315 6.68342 0.292893 6.29289L1 7ZM7.70711 12.2929C8.09763 12.6834 8.09763 13.3166 7.70711 13.7071C7.31658 14.0976 6.68342 14.0976 6.29289 13.7071L7.70711 12.2929ZM6.29289 0.292893C6.68342 -0.0976315 7.31658 -0.0976315 7.70711 0.292893C8.09763 0.683417 8.09763 1.31658 7.70711 1.70711L6.29289 0.292893ZM13 6C13.5523 6 14 6.44772 14 7C14 7.55228 13.5523 8 13 8V6ZM1.70711 6.29289L7.70711 12.2929L6.29289 13.7071L0.292893 7.70711L1.70711 6.29289ZM7.70711 1.70711L1.70711 7.70711L0.292893 6.29289L6.29289 0.292893L7.70711 1.70711ZM13 8H1V6L13 6V8Z" fill="white"/>
</svg>
